<?xml version="1.0" standalone="no"?>
<!DOCTYPE svg PUBLIC "-//W3C//DTD SVG 20010904//EN"
 "http://www.w3.org/TR/2001/REC-SVG-20010904/DTD/svg10.dtd">
<svg version="1.0" xmlns="http://www.w3.org/2000/svg"
 width="512.000000pt" height="512.000000pt" viewBox="0 0 512.000000 512.000000"
 preserveAspectRatio="xMidYMid meet">

<g transform="translate(0.000000,512.000000) scale(0.100000,-0.100000)"
fill="#000000" stroke="none">
<path d="M1640 5099 c-96 -43 -141 -113 -148 -231 l-5 -78 -61 0 c-221 0 -392
-140 -425 -350 -7 -42 -11 -390 -11 -974 l0 -909 -103 100 c-57 55 -119 109
-138 119 -48 26 -170 26 -219 0 -56 -30 -316 -296 -339 -347 -27 -57 -27 -150
-2 -204 13 -26 152 -172 410 -430 l391 -390 0 -495 c0 -272 5 -524 10 -559 19
-137 107 -252 238 -314 l67 -32 1325 -3 c729 -1 1335 0 1347 3 29 7 55 57 47
90 -15 58 68 55 -1354 55 -1447 0 -1357 -4 -1438 65 -22 19 -50 56 -63 82
l-24 48 -3 448 c-2 246 0 447 5 447 4 0 149 -141 320 -312 l313 -313 238 -3
239 -3 53 -54 c64 -65 104 -73 139 -29 34 44 27 69 -39 138 l-60 63 0 233 0
234 -312 313 -313 313 1296 0 c1296 0 1296 0 1323 21 33 26 36 79 6 109 -20
20 -33 20 -1372 20 -847 0 -1359 -4 -1368 -10 -12 -7 -64 39 -242 218 l-228
227 0 702 0 703 1830 0 1829 0 3 -270 c3 -262 4 -270 25 -291 27 -27 75 -29
103 -4 20 18 20 30 20 617 0 562 -1 602 -19 652 -57 164 -195 262 -382 273
l-86 6 -6 77 c-6 88 -29 142 -80 187 -113 99 -284 75 -362 -51 -26 -43 -30
-61 -34 -133 l-3 -83 -173 0 -172 0 -5 78 c-7 118 -52 188 -148 231 -84 38
-188 19 -255 -46 -54 -53 -75 -104 -75 -190 l0 -73 -175 0 -175 0 0 61 c0 86
-17 133 -67 189 -95 106 -236 108 -338 5 -58 -57 -75 -102 -75 -194 l0 -61
-175 0 -175 0 0 73 c0 86 -21 137 -75 190 -67 65 -171 84 -255 46z m158 -165
c21 -24 22 -32 22 -220 l0 -196 -29 -29 c-37 -36 -79 -38 -118 -5 l-28 24 -3
194 c-3 208 2 231 48 256 34 17 80 7 108 -24z m827 6 c18 -19 20 -36 23 -220
l3 -200 -30 -30 c-40 -40 -82 -40 -122 -1 l-29 29 0 194 c0 207 4 228 54 248
30 13 77 3 101 -20z m799 20 c50 -19 58 -53 54 -262 l-3 -190 -28 -24 c-39
-33 -81 -31 -118 5 l-29 29 0 194 c0 207 5 228 54 248 28 12 40 12 70 0z m835
-5 c43 -22 51 -60 51 -244 0 -138 -3 -172 -18 -201 -28 -57 -97 -66 -142 -18
-19 20 -20 35 -20 224 l0 202 31 26 c35 30 58 32 98 11z m-2769 -382 c1 -117
44 -193 133 -238 95 -47 203 -30 277 45 53 53 70 99 70 194 l0 66 174 0 174 0
3 -83 c4 -72 8 -90 34 -133 19 -30 49 -60 79 -79 44 -27 58 -30 126 -30 68 0
82 3 126 30 30 19 60 49 79 79 26 43 30 61 34 133 l3 83 174 0 174 0 0 -66 c0
-95 17 -141 70 -194 124 -125 337 -77 396 89 7 20 13 66 14 104 l0 67 168 0
168 0 10 -90 c9 -74 16 -99 40 -133 48 -68 103 -100 178 -105 79 -5 127 10
178 56 58 53 80 103 86 196 l5 79 77 -6 c85 -5 139 -28 189 -78 65 -64 66 -69
69 -346 l3 -253 -1826 0 -1826 0 3 253 3 254 30 49 c21 33 48 60 84 81 58 35
76 39 164 42 l57 1 0 -67z m-707 -2031 l97 -97 -180 -180 -180 -180 -100 101
c-140 142 -141 136 33 312 72 74 141 138 152 143 45 19 78 1 178 -99z m800
-800 l587 -587 -63 -63 -62 -62 -590 590 -590 590 60 60 c33 33 62 60 65 60 3
0 269 -264 593 -588z m289 -884 l-62 -63 -590 590 -590 590 62 62 63 63 590
-590 590 -590 -63 -62z m328 7 l0 -105 -100 0 c-55 0 -100 3 -100 7 0 7 191
203 197 203 2 0 3 -47 3 -105z"/>
<path d="M1595 3440 c-28 -31 -24 -79 9 -107 l27 -23 1349 2 c1310 3 1349 4
1369 22 27 25 28 79 1 106 -20 20 -33 20 -1378 20 -1349 0 -1359 0 -1377 -20z"/>
<path d="M4824 3049 c-18 -20 -19 -61 -24 -1373 l-5 -1351 -28 -47 c-15 -26
-42 -59 -60 -72 -63 -48 -105 -56 -302 -56 -177 0 -182 -1 -203 -23 -31 -33
-29 -80 5 -107 27 -21 35 -22 233 -18 l206 3 76 38 c88 43 152 107 195 195
l28 57 3 1367 c2 1359 2 1368 -18 1388 -27 27 -81 26 -106 -1z"/>
<path d="M1604 2947 c-33 -28 -37 -76 -9 -107 18 -20 28 -20 1377 -20 1345 0
1358 0 1378 20 27 27 26 81 -1 106 -20 18 -59 19 -1369 22 l-1349 2 -27 -23z"/>
<path d="M1612 2463 c-7 -3 -19 -18 -28 -35 -13 -25 -13 -35 -3 -59 6 -17 20
-34 30 -39 11 -6 523 -10 1368 -10 1338 0 1351 0 1371 20 30 30 27 83 -6 109
l-27 21 -1346 -1 c-740 0 -1352 -3 -1359 -6z"/>
<path d="M2540 1473 c-33 -12 -50 -37 -50 -73 0 -75 -70 -70 942 -70 864 0
906 1 921 18 24 27 22 85 -4 108 -20 18 -51 19 -908 21 -487 1 -893 -1 -901
-4z"/>
</g>
</svg>
